<?xml version="1.0" standalone="no"?>
<!DOCTYPE svg PUBLIC "-//W3C//DTD SVG 20010904//EN"
 "http://www.w3.org/TR/2001/REC-SVG-20010904/DTD/svg10.dtd">
<svg version="1.0" xmlns="http://www.w3.org/2000/svg"
 width="500.000000pt" height="500.000000pt" viewBox="0 0 500.000000 500.000000"
 preserveAspectRatio="xMidYMid meet">

<g transform="translate(0.000000,500.000000) scale(0.100000,-0.100000)"
fill="#000000" stroke="none">
<path d="M1021 4008 c1 -598 2 -646 15 -573 55 309 193 573 415 794 221 222
494 362 809 416 65 11 -13 13 -582 14 l-658 1 1 -652z"/>
<path d="M2750 4645 c315 -54 588 -194 809 -416 222 -221 360 -485 415 -794
13 -73 14 -25 15 573 l1 652 -657 -1 c-570 -1 -648 -3 -583 -14z"/>
<path d="M2275 4546 c-296 -57 -539 -182 -740 -380 -213 -210 -350 -470 -400
-760 -19 -113 -19 -338 0 -447 53 -307 199 -580 423 -791 44 -41 117 -99 161
-129 l80 -54 1 -162 0 -163 185 0 c102 0 185 3 185 8 0 4 -43 290 -95 637 -52
346 -95 640 -95 652 0 16 6 23 19 23 10 0 33 3 50 6 29 6 31 5 31 -24 0 -27
12 -39 109 -110 l108 -80 104 104 104 104 104 -104 104 -104 108 80 c97 71
109 83 109 110 0 29 2 30 31 24 17 -3 40 -6 50 -6 13 0 19 -7 19 -23 0 -12
-43 -306 -95 -652 -52 -347 -95 -633 -95 -637 0 -5 83 -8 185 -8 l185 0 1 168
0 167 71 45 c81 51 245 203 319 296 114 143 207 336 255 528 36 141 44 387 19
537 -94 562 -519 1007 -1085 1134 -101 23 -417 30 -515 11z"/>
<path d="M1021 1678 l-1 -1338 475 0 475 0 0 200 0 200 -65 0 -65 0 0 205 0
205 -70 0 -70 0 0 388 -1 387 -49 33 c-327 222 -571 624 -623 1027 -2 17 -5
-572 -6 -1307z"/>
<path d="M3980 2978 c0 -85 -74 -326 -140 -459 -98 -194 -302 -433 -462 -539
l-67 -45 -1 -392 0 -393 -70 0 -70 0 0 -205 0 -205 -65 0 -65 0 0 -200 0 -200
320 0 320 0 0 550 0 550 155 0 155 0 0 785 c0 432 -2 785 -5 785 -3 0 -5 -15
-5 -32z"/>
<path d="M2404 2739 l-101 -101 -94 70 c-52 38 -96 68 -98 66 -2 -1 34 -253
80 -558 l84 -556 230 0 230 0 84 556 c46 305 82 557 80 558 -2 2 -46 -28 -98
-66 l-94 -70 -101 101 -101 101 -101 -101z"/>
<path d="M1800 1405 l0 -155 705 0 705 0 0 155 0 155 -705 0 -705 0 0 -155z"/>
<path d="M1940 995 l0 -155 565 0 565 0 0 155 0 155 -565 0 -565 0 0 -155z"/>
<path d="M2080 585 l0 -155 425 0 425 0 0 155 0 155 -425 0 -425 0 0 -155z"/>
</g>
</svg>
